<svg width="40" height="50" viewBox="0 0 251 289" fill="none" xmlns="http://www.w3.org/2000/svg">
<g id="coral-logo">
<path id="polygon-coral" d="M187.855 252.82L125.343 217.731L188.433 181.652L187.855 252.82Z" fill="#FCA5A5"/>
<path id="polygon-coral_2" d="M62.8561 36.3393L61.9749 108.015L125.341 71.5113L62.8561 36.3393Z" fill="#FECACA"/>
<path id="polygon-coral_3" d="M62.8562 252.819L62.0326 181.145L125.343 217.731L62.8562 252.819Z" fill="#FECACA"/>
<path id="polygon-coral_4" d="M0.355326 144.571L61.989 107.991L62.0142 181.173L0.355326 144.571Z" fill="#FEE2E2"/>
<path id="polygon-coral_5" d="M188.433 181.652L187.855 252.82L250.355 216.735L188.433 181.652Z" fill="#F87171"/>
<path id="polygon-coral_6" d="M125.357 71.5113L62.8562 36.3394L125.357 0.254624L125.357 71.5113Z" fill="#FEE2E2"/>
<path id="polygon-coral_7" d="M125.357 217.716L62.8561 252.819L125.357 288.903L125.357 217.716Z" fill="#FCA5A5"/>
<path id="polygon-coral_8" d="M62.0026 181.148L0.355381 144.571L0.35539 216.74L62.0026 181.148Z" fill="#FECACA"/>
<path id="polygon-coral_9" d="M125.354 217.737L125.354 288.905L187.855 252.82L125.354 217.737Z" fill="#F87171"/>
<path id="polygon-coral_10" d="M61.9693 107.997L0.35544 72.4241L62.8561 36.3393L61.9693 107.997Z" fill="#FCA5A5"/>
<path id="polygon-coral_11" d="M62.0472 181.116L0.355335 216.734L62.856 252.819L62.0472 181.116Z" fill="#FCA5A5"/>
<path id="polygon-coral_12" d="M61.9792 107.98L0.35537 72.4013L0.355379 144.571L61.9792 107.98Z" fill="#FECACA"/>
<path id="polygon-coral_13" d="M187.847 36.3394L125.355 71.4972L188.425 107.507L187.847 36.3394Z" fill="#FEE2E2"/>
<path id="polygon-coral_14" d="M188.425 107.507L187.847 36.3394L250.348 72.4241L188.425 107.507Z" fill="#FEF2F2"/>
<path id="polygon-coral_15" d="M125.346 71.5278L125.346 0.254559L187.847 36.3393L125.346 71.5278Z" fill="#FEF2F2"/>
</g>
</svg>
