<svg width="251" height="289" viewBox="0 0 251 289" fill="none" xmlns="http://www.w3.org/2000/svg">
<g id="grey-logo">
<path id="polygon-grey" d="M188.39 252.818L125.878 217.728L188.969 181.65L188.39 252.818Z" fill="#52525B"/>
<path id="polygon-grey_2" d="M63.3918 36.3369L62.5106 108.013L125.876 71.5089L63.3918 36.3369Z" fill="#71717A"/>
<path id="polygon-grey_3" d="M63.3918 252.816L62.5683 181.143L125.878 217.728L63.3918 252.816Z" fill="#71717A"/>
<path id="polygon-grey_4" d="M0.890951 144.569L62.5246 107.989L62.5498 181.171L0.890951 144.569Z" fill="#A1A1AA"/>
<path id="polygon-grey_5" d="M188.968 181.65L188.39 252.818L250.891 216.733L188.968 181.65Z" fill="#3F3F46"/>
<path id="polygon-grey_6" d="M125.892 71.5089L63.3918 36.337L125.892 0.252198L125.892 71.5089Z" fill="#A1A1AA"/>
<path id="polygon-grey_7" d="M125.892 217.713L63.3918 252.816L125.892 288.901L125.892 217.713Z" fill="#52525B"/>
<path id="polygon-grey_8" d="M62.5383 181.146L0.891025 144.568L0.891034 216.738L62.5383 181.146Z" fill="#71717A"/>
<path id="polygon-grey_9" d="M125.89 217.735L125.89 288.903L188.39 252.818L125.89 217.735Z" fill="#3F3F46"/>
<path id="polygon-grey_10" d="M62.5049 107.995L0.891087 72.4217L63.3918 36.3369L62.5049 107.995Z" fill="#52525B"/>
<path id="polygon-grey_11" d="M62.5829 181.114L0.890964 216.731L63.3917 252.816L62.5829 181.114Z" fill="#52525B"/>
<path id="polygon-grey_12" d="M62.5148 107.977L0.890999 72.3989L0.891008 144.568L62.5148 107.977Z" fill="#71717A"/>
<path id="polygon-grey_13" d="M188.383 36.3369L125.89 71.4948L188.961 107.505L188.383 36.3369Z" fill="#A1A1AA"/>
<path id="polygon-grey_14" d="M188.961 107.505L188.383 36.337L250.883 72.4218L188.961 107.505Z" fill="#D4D4D8"/>
<path id="polygon-grey_15" d="M125.882 71.5253L125.882 0.252118L188.383 36.3369L125.882 71.5253Z" fill="#D4D4D8"/>
</g>
</svg>
